<svg xmlns="http://www.w3.org/2000/svg" viewBox="0 0 1024 1024">
  <defs>
    <linearGradient id="char-bg" x1="0" y1="0" x2="1" y2="1">
      <stop offset="0%" stop-color="#1A1E26"/>
      <stop offset="100%" stop-color="#0B0D11"/>
    </linearGradient>
    <linearGradient id="gold-bg" x1="0" y1="0" x2="1" y2="1">
      <stop offset="0%" stop-color="#F5C84F"/>
      <stop offset="55%" stop-color="#F0B429"/>
      <stop offset="100%" stop-color="#A86E08"/>
    </linearGradient>
    <linearGradient id="line-gold" x1="0" y1="1" x2="1" y2="0">
      <stop offset="0%" stop-color="#A86E08"/>
      <stop offset="40%" stop-color="#D69312"/>
      <stop offset="80%" stop-color="#F0B429"/>
      <stop offset="100%" stop-color="#FFE49A"/>
    </linearGradient>
  </defs>
  <rect width="1024" height="1024" fill="url(#char-bg)"/>
  <circle cx="640" cy="380" r="220" fill="url(#gold-bg)" opacity="0.10"/>
  <g opacity="0.5">
    <circle cx="220" cy="780" r="6" fill="#7C8392"/>
    <circle cx="280" cy="820" r="4" fill="#7C8392"/>
    <circle cx="180" cy="720" r="5" fill="#5A6170"/>
  </g>
  <path d="M 240 760 C 240 660, 380 600, 512 580 C 644 560, 784 500, 784 380 C 784 280, 660 240, 540 260 C 380 290, 280 380, 280 480 C 280 580, 380 620, 512 620 C 644 620, 784 660, 784 760"
        fill="none" stroke="url(#line-gold)" stroke-width="76" stroke-linecap="round" stroke-linejoin="round"/>
  <circle cx="784" cy="380" r="32" fill="#FFE49A"/>
</svg>
